<?xml version="1.0" standalone="no"?>
<!DOCTYPE svg PUBLIC "-//W3C//DTD SVG 20010904//EN"
 "http://www.w3.org/TR/2001/REC-SVG-20010904/DTD/svg10.dtd">
<svg version="1.0" xmlns="http://www.w3.org/2000/svg"
 width="455.000000pt" height="455.000000pt" viewBox="0 0 455.000000 455.000000"
 preserveAspectRatio="xMidYMid meet">
<metadata>
Created by potrace 1.14, written by Peter Selinger 2001-2017
</metadata>
<g transform="translate(0.000000,455.000000) scale(0.100000,-0.100000)"
fill="#000000" stroke="none">
<path d="M0 2286 c0 -273 2 -496 4 -496 2 0 55 29 117 65 63 36 117 65 120 65
3 0 5 -27 4 -60 -1 -34 1 -63 4 -65 4 -2 54 24 111 57 58 33 111 62 118 65 9
4 12 -12 12 -61 0 -36 2 -66 5 -66 3 0 60 32 126 70 67 39 125 70 130 70 5 0
9 5 9 10 0 6 4 10 9 10 9 0 559 315 574 329 4 4 -21 23 -55 42 -35 20 -135 77
-223 129 -88 51 -252 146 -365 211 l-205 118 -5 -69 -5 -68 -117 68 c-69 40
-118 63 -121 56 -2 -6 -3 -37 -2 -68 1 -32 0 -58 -2 -58 -2 0 -20 11 -41 23
-20 13 -64 39 -97 57 -33 18 -70 40 -82 48 l-23 14 0 -496z m490 257 l0 -45
-42 25 c-24 14 -68 39 -98 55 -57 32 -69 52 -62 103 l4 26 99 -59 99 -59 0
-46z m-339 102 l94 -56 0 -305 c1 -200 -3 -308 -10 -313 -5 -4 -35 -21 -65
-37 -30 -16 -57 -32 -60 -35 -3 -3 -19 -14 -37 -22 l-32 -17 1 420 c0 231 4
420 8 420 4 0 50 -25 101 -55z m429 35 c14 -11 28 -20 33 -20 4 0 24 -11 45
-23 20 -13 57 -35 82 -49 25 -14 117 -67 205 -118 88 -51 176 -102 195 -112
90 -52 120 -70 120 -77 0 -6 -10 -13 -66 -41 -16 -8 -31 -17 -34 -20 -3 -3
-19 -12 -35 -21 -17 -9 -140 -80 -274 -157 -134 -78 -247 -142 -250 -142 -3 0
-17 -9 -31 -20 -14 -11 -28 -20 -32 -20 -3 0 -5 21 -5 46 l2 46 95 55 c52 30
113 65 135 78 22 12 91 52 154 89 62 36 116 66 120 66 3 1 19 11 34 24 l29 23
-44 25 c-23 14 -60 35 -80 47 -153 86 -422 243 -434 252 -6 5 -11 27 -11 49 0
45 10 49 47 20z m-186 -176 l96 -56 0 -167 c0 -164 -1 -168 -22 -179 -44 -22
-153 -84 -166 -94 -15 -13 -14 -34 -13 282 0 281 0 270 5 270 3 0 48 -25 100
-56z m242 3 c49 -29 96 -57 104 -61 8 -4 24 -12 35 -19 11 -7 71 -41 132 -77
62 -35 110 -67 105 -71 -7 -7 -337 -198 -433 -252 l-46 -25 -1 43 -1 44 72 44
c40 24 79 46 87 50 8 5 24 13 35 20 11 7 46 27 78 45 49 29 66 52 37 52 -9 0
-272 151 -294 169 -13 11 -19 91 -6 91 3 0 46 -24 96 -53z m2 -143 c105 -60
138 -82 131 -87 -12 -10 -223 -127 -229 -127 -3 0 -6 61 -6 135 0 74 2 135 3
135 2 0 47 -25 101 -56z m-148 -342 l0 -48 -97 -56 -98 -56 -5 37 c-4 21 -1
42 6 50 9 10 173 113 192 120 1 1 2 -21 2 -47z"/>
<path d="M3385 2639 c0 -55 -3 -105 -6 -111 -4 -6 -25 -9 -48 -6 -41 4 -43 2
-43 -27 0 -32 3 -35 47 -35 29 0 45 -5 46 -12 1 -7 2 -103 3 -212 l1 -200 33
-3 c37 -5 33 -34 33 245 1 165 2 183 17 181 9 -1 43 -1 75 0 l57 1 0 33 0 32
-73 -3 -74 -3 -1 98 c0 54 -1 104 -1 111 -1 7 -15 12 -34 12 l-33 0 1 -101z"/>
<path d="M1897 2525 c-46 -16 -104 -63 -113 -92 -10 -36 -23 -17 -22 31 0 24
-3 49 -6 55 -9 13 -43 15 -51 2 -4 -7 -9 -367 -6 -468 1 -18 6 -21 34 -19 l32
3 1 131 c1 72 5 147 8 167 21 113 188 175 258 96 16 -17 28 -44 29 -59 0 -15
1 -96 1 -179 0 -84 3 -153 7 -154 3 0 18 -3 34 -5 l27 -5 0 196 c0 176 -2 200
-20 235 -11 22 -34 47 -53 56 -40 22 -112 25 -160 9z"/>
<path d="M2438 2526 c-102 -30 -178 -129 -182 -234 -3 -88 28 -155 98 -211 88
-70 217 -74 310 -10 l33 23 -24 22 -25 23 -39 -21 c-94 -49 -228 -14 -259 67
-6 17 0 23 49 43 31 13 63 25 71 27 8 3 72 28 142 56 139 58 136 53 86 126
-55 81 -164 118 -260 89z m163 -87 c16 -11 34 -29 39 -39 9 -17 5 -22 -26 -35
-20 -8 -42 -15 -49 -15 -6 0 -15 -3 -19 -7 -12 -13 -211 -91 -219 -86 -11 7
-2 76 14 104 43 75 107 112 182 104 27 -3 62 -14 78 -26z"/>
<path d="M3840 2530 c-78 -22 -160 -97 -177 -162 -26 -101 -9 -187 49 -253 83
-94 210 -115 326 -56 53 27 56 34 28 60 l-22 21 -49 -24 c-83 -42 -173 -25
-235 45 -38 41 -46 35 188 129 167 67 182 75 176 94 -15 48 -82 118 -133 138
-32 13 -118 18 -151 8z m146 -84 c42 -25 62 -57 43 -69 -26 -16 -304 -125
-308 -121 -11 10 0 77 18 112 18 35 73 82 111 95 31 10 106 1 136 -17z"/>
<path d="M4434 2519 c-26 -10 -64 -36 -85 -59 -20 -22 -40 -40 -42 -40 -3 0
-5 21 -4 47 1 50 -16 72 -46 60 -14 -5 -17 -22 -17 -89 0 -46 0 -123 0 -173
-1 -49 0 -94 0 -100 1 -5 2 -37 2 -71 l0 -61 34 0 34 0 1 136 c0 75 2 146 5
159 10 58 69 106 142 118 23 4 42 12 42 19 0 7 3 26 6 42 7 36 -4 38 -72 12z"/>
<path d="M2806 2522 c-3 -5 31 -57 74 -116 44 -59 80 -112 80 -117 0 -8 -41
-70 -125 -189 -49 -69 -49 -68 -6 -67 36 1 41 5 97 85 66 94 85 114 91 95 3
-7 33 -49 68 -94 59 -77 66 -83 105 -86 49 -4 53 -15 -53 134 -44 61 -79 115
-78 120 0 4 34 56 76 115 41 58 75 110 75 115 0 5 -14 9 -32 9 -25 -1 -38 -9
-62 -42 -46 -60 -65 -86 -85 -117 l-18 -28 -67 92 c-59 82 -70 93 -100 96 -19
2 -37 0 -40 -5z"/>
</g>
</svg>
